<?xml version="1.0" encoding="UTF-8"?>
<svg width="12px" height="12px" viewBox="0 0 12 12" version="1.1" xmlns="http://www.w3.org/2000/svg" xmlns:xlink="http://www.w3.org/1999/xlink">
    <title>形状结合</title>
    <g id="风险四单管理" stroke="none" stroke-width="1" fill="none" fill-rule="evenodd">
        <g id="切图" transform="translate(-272.000000, -30.000000)" fill="currentColor">
            <path d="M278,30 C281.313708,30 284,32.6862915 284,36 C284,39.3137085 281.313708,42 278,42 C274.686292,42 272,39.3137085 272,36 C272,32.6862915 274.686292,30 278,30 Z M276.585786,33.1715729 C276.195262,32.7810486 275.562097,32.7810486 275.171573,33.1715729 C274.781049,33.5620972 274.781049,34.1952621 275.171573,34.5857864 L276.585786,36 L275.171573,37.4142136 C274.781049,37.8047379 274.781049,38.4379028 275.171573,38.8284271 C275.562097,39.2189514 276.195262,39.2189514 276.585786,38.8284271 L278,37.4142136 L279.414214,38.8284271 C279.804738,39.2189514 280.437903,39.2189514 280.828427,38.8284271 C281.218951,38.4379028 281.218951,37.8047379 280.828427,37.4142136 L279.414214,36 L280.828427,34.5857864 C281.218951,34.1952621 281.218951,33.5620972 280.828427,33.1715729 C280.437903,32.7810486 279.804738,32.7810486 279.414214,33.1715729 L278,34.5857864 Z" id="形状结合"></path>
        </g>
    </g>
</svg>