<?xml version="1.0" encoding="UTF-8"?>
<svg width="16px" height="16px" viewBox="0 0 16 16" version="1.1" xmlns="http://www.w3.org/2000/svg" xmlns:xlink="http://www.w3.org/1999/xlink">
    <title>导出</title>
    <defs>
        <polygon id="path-1" points="1 1 15 1 15 15 1 15"></polygon>
    </defs>
    <g id="风险四单管理" stroke="none" stroke-width="1" fill="none" fill-rule="evenodd">
        <g id="切图" transform="translate(-384.000000, -81.000000)">
            <g id="编组-5" transform="translate(197.000000, 71.000000)">
                <g id="导出" transform="translate(187.000000, 10.000000)">
                    <rect id="矩形" fill="currentColor" opacity="0" x="0" y="0" width="16" height="16"></rect>
                    <mask id="mask-2" fill="white">
                        <use xlink:href="#path-1"></use>
                    </mask>
                    <g id="Clip-2"></g>
                    <path d="M1.20187823,5.17504647 L5.2057032,1.20094465 C5.33562206,1.07176328 5.51048053,0.999577858 5.69254894,1.00000186 L11.6510368,1.00000186 C12.2211118,1.00000186 12.538629,1.30798065 12.538629,1.87495914 L12.538629,8.00000186 L10.7634446,8.00000186 L10.7634446,2.74998552 L6.3254834,2.74998552 L6.3254834,5.37506467 C6.3254834,5.75302667 5.81833784,6.25002008 5.43796117,6.25002008 L2.77518447,6.25002008 L2.76293457,13.2500182 L5.43796117,13.2500182 L5.43796117,15.0000019 L1.88759223,15.0000019 C1.31758722,15.0000019 1,14.6920941 1,14.1250446 L1,5.65905077 C1,5.4769902 1.07307936,5.30302121 1.20187823,5.17504647 L1.20187823,5.17504647 Z M14.7282799,11.0669949 L11.5400878,8.87509923 L10.6524955,8.87509923 L10.6524955,10.625152 L7.10219661,10.625152 L7.10219661,12.3751338 L10.6525655,12.3751338 L10.6525655,14.1251156 L11.5401578,14.1251156 L14.7284199,11.933078 C15.0905267,11.7111273 15.0905267,11.2891585 14.7284199,11.0671369 L14.7282799,11.0669949 Z" id="Fill-1" fill="currentColor" mask="url(#mask-2)"></path>
                </g>
            </g>
        </g>
    </g>
</svg>