<?xml version="1.0" encoding="UTF-8"?>
<svg width="16px" height="16px" viewBox="0 0 16 16" version="1.1" xmlns="http://www.w3.org/2000/svg" xmlns:xlink="http://www.w3.org/1999/xlink">
    <title>自定义展示项</title>
    <g id="风险四单管理" stroke="none" stroke-width="1" fill="none" fill-rule="evenodd">
        <g id="切图" transform="translate(-333.000000, -81.000000)">
            <g id="编组-5" transform="translate(197.000000, 71.000000)">
                <g id="自定义展示项" transform="translate(136.000000, 10.000000)">
                    <rect id="矩形" fill="currentColor" opacity="0" x="0" y="0" width="16" height="16"></rect>
                    <path d="M2,6 L4,6 C4.55228475,6 5,6.44771525 5,7 L5,9 C5,9.55228475 4.55228475,10 4,10 L2,10 C1.44771525,10 1,9.55228475 1,9 L1,7 C1,6.44771525 1.44771525,6 2,6 Z M2,11 L4,11 C4.55228475,11 5,11.4477153 5,12 L5,14 C5,14.5522847 4.55228475,15 4,15 L2,15 C1.44771525,15 1,14.5522847 1,14 L1,12 C1,11.4477153 1.44771525,11 2,11 Z M7,1 L9,1 C9.55228475,1 10,1.44771525 10,2 L10,4 C10,4.55228475 9.55228475,5 9,5 L7,5 C6.44771525,5 6,4.55228475 6,4 L6,2 C6,1.44771525 6.44771525,1 7,1 Z M7,6 L9,6 C9.55228475,6 10,6.44771525 10,7 L10,9 C10,9.55228475 9.55228475,10 9,10 L7,10 C6.44771525,10 6,9.55228475 6,9 L6,7 C6,6.44771525 6.44771525,6 7,6 Z M7,11 L9,11 C9.55228475,11 10,11.4477153 10,12 L10,14 C10,14.5522847 9.55228475,15 9,15 L7,15 C6.44771525,15 6,14.5522847 6,14 L6,12 C6,11.4477153 6.44771525,11 7,11 Z M12,1 L14,1 C14.5522847,1 15,1.44771525 15,2 L15,4 C15,4.55228475 14.5522847,5 14,5 L12,5 C11.4477153,5 11,4.55228475 11,4 L11,2 C11,1.44771525 11.4477153,1 12,1 Z M12,6 L14,6 C14.5522847,6 15,6.44771525 15,7 L15,9 C15,9.55228475 14.5522847,10 14,10 L12,10 C11.4477153,10 11,9.55228475 11,9 L11,7 C11,6.44771525 11.4477153,6 12,6 Z M12,11 L14,11 C14.5522847,11 15,11.4477153 15,12 L15,14 C15,14.5522847 14.5522847,15 14,15 L12,15 C11.4477153,15 11,14.5522847 11,14 L11,12 C11,11.4477153 11.4477153,11 12,11 Z M2,1 L4,1 C4.55228475,1 5,1.44771525 5,2 L5,4 C5,4.55228475 4.55228475,5 4,5 L2,5 C1.44771525,5 1,4.55228475 1,4 L1,2 C1,1.44771525 1.44771525,1 2,1 Z" id="形状结合" fill="currentColor"></path>
                </g>
            </g>
        </g>
    </g>
</svg>