<?xml version="1.0" standalone="no"?><!DOCTYPE svg PUBLIC "-//W3C//DTD SVG 1.1//EN" "http://www.w3.org/Graphics/SVG/1.1/DTD/svg11.dtd"><svg t="1694656075792" class="icon" viewBox="0 0 1024 1024" version="1.1" xmlns="http://www.w3.org/2000/svg" p-id="8312" xmlns:xlink="http://www.w3.org/1999/xlink" width="160" height="160"><path d="M547.8 289.8c24.9 6 36.9 35.2 31.3 60-6 24.9-29.2 45.9-54 39.9-24.9-6-34.3-34.7-28.7-59.6 6-24.9 26.5-46.3 51.4-40.3zM441.1 473.7s75-65.6 104.2-52.7c19.7 5.1 9 93.9 6 105.9-0.9 10.7-18 145.8-13.7 151.8 6 22.3 12.9 4.7 33.9-12.9 0 0 49.3-33.4-3.4 36-43.7 46.7-86.2 40.7-92.6 5.6-5.1-26.6 15.9-187.3 21-223.4 1.7-12-13.3 0-13.3 0s-40.7 25.3-50.6 8.1c-2.7-4.7 1.2-12 8.5-18.4z" fill="currentColor" p-id="8313"></path><path d="M512 922c-55.3 0-109-10.8-159.6-32.2-48.8-20.7-92.7-50.2-130.3-87.9-37.6-37.6-67.2-81.5-87.9-130.3C112.8 621 102 567.3 102 512s10.8-109 32.2-159.6c20.7-48.8 50.2-92.7 87.9-130.3 37.6-37.6 81.5-67.2 130.3-87.9C403 112.8 456.7 102 512 102s109 10.8 159.6 32.2c48.8 20.7 92.7 50.2 130.3 87.9 37.6 37.6 67.2 81.5 87.9 130.3C911.2 403 922 456.7 922 512s-10.8 109-32.2 159.6c-20.7 48.8-50.2 92.7-87.9 130.3-37.6 37.6-81.5 67.2-130.3 87.9C621 911.2 567.3 922 512 922z m0-750c-187.5 0-340 152.5-340 340s152.5 340 340 340 340-152.5 340-340-152.5-340-340-340z" fill="currentColor" p-id="8314"></path></svg>