<?xml version="1.0" encoding="UTF-8"?>
<svg width="16px" height="16px" viewBox="0 0 16 16" version="1.1" xmlns="http://www.w3.org/2000/svg" xmlns:xlink="http://www.w3.org/1999/xlink">
    <title>展示形式</title>
    <g id="风险四单管理" stroke="none" stroke-width="1" fill="none" fill-rule="evenodd">
        <g id="切图" transform="translate(-292.000000, -81.000000)">
            <g id="编组-5" transform="translate(197.000000, 71.000000)">
                <g id="展示形式" transform="translate(95.000000, 10.000000)">
                    <rect id="矩形" fill="currentColor" opacity="0" x="0" y="0" width="16" height="16"></rect>
                    <path d="M13.244419,14.188 C13.244419,14.216 13.2238122,14.237 13.1963366,14.237 L2.78992559,14.237 C2.76244991,14.237 2.74184316,14.216 2.74184316,14.188 L2.74184316,3.338 C2.74184316,3.31 2.76244991,3.289 2.78992559,3.289 L13.1963366,3.289 C13.2238122,3.289 13.244419,3.31 13.244419,3.338 L13.244419,14.188 Z M13.244419,1 L2.74871208,1 C2.33657699,1 2,1.343 2,1.763 L2,14.811 C2,14.916 2.08242702,15 2.18546079,15 L13.8145392,15 C13.917573,15 14,14.916 14,14.811 L14,1.763 C14,1.343 13.663423,1 13.244419,1 L13.244419,1 Z" id="Fill-1" fill="currentColor"></path>
                    <path d="M11.9533851,11 L6.04661487,11 C6.0199778,11 6,10.9727273 6,10.9363636 L6,10.0636364 C6,10.0272727 6.0199778,10 6.04661487,10 L11.9533851,10 C11.9800222,10 12,10.0272727 12,10.0636364 L12,10.9363636 C12,10.9727273 11.9800222,11 11.9533851,11" id="Fill-5" fill="currentColor"></path>
                    <path d="M11.9533851,9 L6.04661487,9 C6.0199778,9 6,8.97272727 6,8.93636364 L6,8.06363636 C6,8.02727273 6.0199778,8 6.04661487,8 L11.9533851,8 C11.9800222,8 12,8.02727273 12,8.06363636 L12,8.93636364 C12,8.97272727 11.9800222,9 11.9533851,9" id="Fill-5备份" fill="currentColor"></path>
                    <path d="M11.9533851,7 L6.04661487,7 C6.0199778,7 6,6.97272727 6,6.93636364 L6,6.06363636 C6,6.02727273 6.0199778,6 6.04661487,6 L11.9533851,6 C11.9800222,6 12,6.02727273 12,6.06363636 L12,6.93636364 C12,6.97272727 11.9800222,7 11.9533851,7" id="Fill-5备份-2" fill="currentColor"></path>
                    <path d="M11.9533851,5 L6.04661487,5 C6.0199778,5 6,4.97272727 6,4.93636364 L6,4.06363636 C6,4.02727273 6.0199778,4 6.04661487,4 L11.9533851,4 C11.9800222,4 12,4.02727273 12,4.06363636 L12,4.93636364 C12,4.97272727 11.9800222,5 11.9533851,5" id="Fill-5备份-3" fill="currentColor"></path>
                    <path d="M11.9533851,13 L6.04661487,13 C6.0199778,13 6,12.9727273 6,12.9363636 L6,12.0636364 C6,12.0272727 6.0199778,12 6.04661487,12 L11.9533851,12 C11.9800222,12 12,12.0272727 12,12.0636364 L12,12.9363636 C12,12.9727273 11.9800222,13 11.9533851,13" id="Fill-7" fill="currentColor"></path>
                    <path d="M4.93636364,11 L4.06363636,11 C4.02727273,11 4,10.9727273 4,10.9363636 L4,10.0636364 C4,10.0272727 4.02727273,10 4.06363636,10 L4.93636364,10 C4.97272727,10 5,10.0272727 5,10.0636364 L5,10.9363636 C5,10.9727273 4.97272727,11 4.93636364,11" id="Fill-9" fill="currentColor"></path>
                    <path d="M4.93636364,9 L4.06363636,9 C4.02727273,9 4,8.97272727 4,8.93636364 L4,8.06363636 C4,8.02727273 4.02727273,8 4.06363636,8 L4.93636364,8 C4.97272727,8 5,8.02727273 5,8.06363636 L5,8.93636364 C5,8.97272727 4.97272727,9 4.93636364,9" id="Fill-9备份" fill="currentColor"></path>
                    <path d="M4.93636364,7 L4.06363636,7 C4.02727273,7 4,6.97272727 4,6.93636364 L4,6.06363636 C4,6.02727273 4.02727273,6 4.06363636,6 L4.93636364,6 C4.97272727,6 5,6.02727273 5,6.06363636 L5,6.93636364 C5,6.97272727 4.97272727,7 4.93636364,7" id="Fill-9备份-2" fill="currentColor"></path>
                    <path d="M4.93636364,5 L4.06363636,5 C4.02727273,5 4,4.97272727 4,4.93636364 L4,4.06363636 C4,4.02727273 4.02727273,4 4.06363636,4 L4.93636364,4 C4.97272727,4 5,4.02727273 5,4.06363636 L5,4.93636364 C5,4.97272727 4.97272727,5 4.93636364,5" id="Fill-9备份-3" fill="currentColor"></path>
                    <path d="M4.93636364,13 L4.06363636,13 C4.02727273,13 4,12.9727273 4,12.9363636 L4,12.0636364 C4,12.0272727 4.02727273,12 4.06363636,12 L4.93636364,12 C4.97272727,12 5,12.0272727 5,12.0636364 L5,12.9363636 C5,12.9727273 4.97272727,13 4.93636364,13" id="Fill-11" fill="currentColor"></path>
                </g>
            </g>
        </g>
    </g>
</svg>