<?xml version="1.0" encoding="UTF-8"?>
<svg width="16px" height="16px" viewBox="0 0 16 16" version="1.1" xmlns="http://www.w3.org/2000/svg" xmlns:xlink="http://www.w3.org/1999/xlink">
    <title>刷新</title>
    <g id="风险四单管理" stroke="none" stroke-width="1" fill="none" fill-rule="evenodd">
        <g id="切图" transform="translate(-252.000000, -81.000000)">
            <g id="编组-5" transform="translate(197.000000, 71.000000)">
                <g id="刷新" transform="translate(55.000000, 10.000000)">
                    <path d="M10.9030252,12.5881588 C9.97469954,13.3324658 8.86711095,13.718933 7.72751113,13.7046194 C7.58025947,13.7046194 7.43300781,13.6903058 7.28575615,13.6759922 C7.22813593,13.6688354 7.17051571,13.6616786 7.10649325,13.647365 C6.99125282,13.6330514 6.87601239,13.611581 6.76077196,13.5901106 C6.69034725,13.575797 6.61992254,13.5543266 6.55590008,13.5328562 C6.4470619,13.504229 6.33182147,13.4756018 6.22938553,13.4398178 C6.17816756,13.4183474 6.13335183,13.396877 6.07573162,13.3754066 C5.9476867,13.3324658 5.82604402,13.2823682 5.70440134,13.2251139 C5.67879236,13.2108003 5.65318337,13.1964867 5.62757439,13.1893299 C5.48672497,13.1177619 5.34587556,13.0390371 5.21142839,12.9603123 C5.20502614,12.9531555 5.19862389,12.9531555 5.19222165,12.9459987 C4.73766217,12.6597267 4.32151617,12.3090436 3.95658814,11.8939493 C3.95018589,11.8867925 3.94378364,11.8796357 3.9373814,11.8724789 C3.82214097,11.7436565 3.71330278,11.6076773 3.61086684,11.4645413 C3.5916601,11.4359141 3.57245337,11.4072869 3.54684438,11.3715029 C2.77857484,10.2693559 2.35602659,8.91672088 2.36242884,7.52114509 L3.68129155,7.52114509 L2.0935345,4 L0,7.56408588 L1.30605822,7.56408588 C1.30605822,9.06701366 1.70939973,10.5341574 2.46486478,11.7794405 C2.47126702,11.7937541 2.47766927,11.8152245 2.49047376,11.8295381 C2.56730072,11.9512036 2.65052992,12.0657124 2.72735687,12.1802212 C2.7593681,12.223162 2.78497709,12.2661028 2.81698832,12.3090436 C2.93222875,12.47365 3.06667592,12.6239427 3.19472084,12.7742355 C3.20752533,12.7885491 3.22032983,12.8028627 3.23313432,12.8171763 C3.66848706,13.3109954 4.16146001,13.7332466 4.69924869,14.0696161 C4.71205318,14.0767729 4.72485768,14.0839297 4.74406441,14.0982433 C4.89771832,14.1912817 5.05777448,14.2843201 5.21783063,14.3630449 C5.25624411,14.3845153 5.29465759,14.4059857 5.33947331,14.4202993 C5.48032272,14.4847105 5.62117214,14.5419649 5.76202156,14.5992193 C5.83244626,14.6278465 5.89646873,14.6493169 5.96689343,14.677944 C6.09493836,14.7208848 6.21658103,14.7566688 6.3510282,14.785296 C6.4342574,14.8067664 6.5174866,14.8353936 6.60711805,14.8497072 C6.63912928,14.8640208 6.67754276,14.8711776 6.70955399,14.8783344 C6.83119667,14.9069616 6.95283934,14.9141184 7.07448202,14.9355888 C7.11929775,14.9427456 7.16411347,14.9499024 7.20892919,14.9570592 C7.42660556,14.9785296 7.64428193,15 7.8619583,15 C9.18722326,15 10.794187,14.5276513 11.7865352,13.4756018 C12.0810385,13.1607027 12.0234183,12.7312947 11.8953734,12.5738452 C11.703306,12.3591412 11.2935623,12.2804164 10.9030252,12.5881588 L10.9030252,12.5881588 Z M14.6715564,8.42392718 C14.6715564,6.92912874 14.2697833,5.46293888 13.5115984,4.22561769 C13.498638,4.20416125 13.4921578,4.18270481 13.4856775,4.16840052 C13.3884744,4.01820546 13.2912712,3.88231469 13.194068,3.74642393 C13.1811076,3.73211964 13.1746273,3.7106632 13.1616669,3.69635891 C12.5006852,2.79518856 11.6517774,2.07997399 10.6927059,1.61508453 C10.6667851,1.60078023 10.6408642,1.58647594 10.6149434,1.57217165 C10.4594183,1.5006502 10.3038932,1.44343303 10.1483681,1.37906372 C10.0965264,1.35760728 10.0382045,1.33615085 9.97988257,1.31469441 C9.84379811,1.26462939 9.70771365,1.22886866 9.56514897,1.19310793 C9.48738642,1.1716515 9.40962387,1.15019506 9.33186132,1.13589077 C9.29298005,1.12873862 9.26057898,1.11443433 9.22169771,1.10728218 C9.11801431,1.08582575 9.01433091,1.0786736 8.91064751,1.06436931 C8.83936517,1.05721717 8.76808283,1.04291287 8.69680049,1.03576073 C8.52183476,1.01430429 8.34686902,1.00715215 8.17190328,1.00715215 C8.13950222,1.00715215 8.10710116,1 8.07470009,1 C8.06821988,1 8.06173967,1 8.05525946,1 C6.70089504,1 5.37893169,1.47204161 4.28377577,2.34460338 C3.90792345,2.63784135 3.95976515,3.0526658 4.12825067,3.26007802 C4.2448945,3.41027308 4.6077864,3.61768531 4.89939596,3.36736021 C5.82606635,2.59492848 6.95362333,2.24447334 8.08766052,2.25162549 C8.24966583,2.25162549 8.41167114,2.26592978 8.57367646,2.28023407 C8.62551816,2.28738622 8.67087964,2.29453836 8.71624113,2.30169051 C8.84584538,2.3159948 8.97544963,2.33745124 9.10505388,2.37321196 C9.15689558,2.38751625 9.2152175,2.40182055 9.2670592,2.41612484 C9.39666345,2.45188557 9.51330727,2.48049415 9.63643131,2.52340702 C9.67531258,2.53771131 9.71419386,2.5520156 9.75307513,2.5663199 C9.89563981,2.61638492 10.0317243,2.67360208 10.1678087,2.73797139 C10.1807692,2.74512354 10.1937296,2.75227568 10.20669,2.75942783 C11.0167166,3.15279584 11.7230597,3.75357607 12.280358,4.50455137 C12.280358,4.51170351 12.2868382,4.51170351 12.2868382,4.51885566 C13.0968648,5.62743823 13.5375192,7.00780234 13.531039,8.43823147 L12.1961153,8.43823147 L13.8874507,12 L16,8.43823147 L14.6715564,8.42392718 Z" id="形状" fill="currentColor" fill-rule="nonzero"></path>
                    <rect id="矩形" fill="currentColor" opacity="0" x="0" y="0" width="16" height="16"></rect>
                </g>
            </g>
        </g>
    </g>
</svg>