<?xml version="1.0" encoding="UTF-8"?>
<svg width="16px" height="16px" viewBox="0 0 16 16" version="1.1" xmlns="http://www.w3.org/2000/svg" xmlns:xlink="http://www.w3.org/1999/xlink">
    <title>搜索</title>
    <g id="风险四单管理" stroke="none" stroke-width="1" fill="none" fill-rule="evenodd">
        <g id="切图" transform="translate(-210.000000, -81.000000)">
            <g id="编组-5" transform="translate(197.000000, 71.000000)">
                <g id="搜索" transform="translate(13.000000, 10.000000)">
                    <rect id="矩形" fill="currentColor" opacity="0" x="0" y="0" width="16" height="16"></rect>
                    <path d="M7,1 C10.3137085,1 13,3.6862915 13,7 C13,8.35651539 12.5498327,9.60788856 11.7907391,10.6128784 L14.7559223,13.577411 C15.0813592,13.9028479 15.0813592,14.4304854 14.7559223,14.7559223 C14.4666451,15.0451996 14.0176044,15.0773415 13.6928242,14.8523481 L13.577411,14.7559223 L10.6128784,11.7907391 C9.60788856,12.5498327 8.35651539,13 7,13 C3.6862915,13 1,10.3137085 1,7 C1,3.6862915 3.6862915,1 7,1 Z M7,2.2 C4.3490332,2.2 2.2,4.3490332 2.2,7 C2.2,9.6509668 4.3490332,11.8 7,11.8 C9.6509668,11.8 11.8,9.6509668 11.8,7 C11.8,4.3490332 9.6509668,2.2 7,2.2 Z" id="椭圆形" fill="currentColor" fill-rule="nonzero"></path>
                </g>
            </g>
        </g>
    </g>
</svg>