<?xml version="1.0" standalone="no"?><!DOCTYPE svg PUBLIC "-//W3C//DTD SVG 1.1//EN" "http://www.w3.org/Graphics/SVG/1.1/DTD/svg11.dtd"><svg t="1697011698192" class="icon" viewBox="0 0 1024 1024" version="1.1" xmlns="http://www.w3.org/2000/svg" p-id="20655" xmlns:xlink="http://www.w3.org/1999/xlink" width="20" height="20"><path d="M670.1 479c-91.6-46.7-204.2-11.2-251.4 79.4-47.2 90.5-11.4 201.8 80.3 248.4 73.5 37.4 163.2 22.6 220.4-36.3l81.7 67.7c11.5 9.1 28.3 7.2 37.5-4.1 8.9-11.1 7.4-27-3.1-36.2l-85-70.4c47.2-90.6 11.3-202-80.4-248.5z m-85.6 295.7c-73.7 0-133.3-59-133.4-131.7 0-72.8 59.7-131.7 133.3-131.8h0.1c73.7 0 133.3 59.1 133.3 131.8-0.1 72.6-59.8 131.7-133.3 131.7z" fill="currentColor" p-id="20656"></path><path d="M872 169.3l0.9-0.7H572.3l6.4 6.7c12.2 12.8 19 29.1 20.1 46.1h168.5c1.8 0 3.6 0 5.3-0.1l-17.4 51.5c-10.9 32.3-41.5 54-75.9 54h-79.4v37.4c0 5.4-0.6 10.7-1.7 15.7h81.3c57.6 0 108.6-36.3 126.8-90.4l22.8-67.8h21.3c28.6 0 51.8 22.9 51.8 51.2v582.9c0 28.3-23.2 51.2-51.8 51.2H319.8c-28.6 0-51.8-22.9-51.8-51.2V526.6c-13.1 10.9-29.4 16.9-46.5 16.9-2.5 0-4.9-0.1-7.3-0.4v326.7c1.9 46.7 37.9 84.6 84.1 90.1h573.4c47.4-5.6 84.2-45.5 84.2-93.9V263.2c0-48.3-36.7-88.2-83.9-93.9z" fill="currentColor" p-id="20657"></path><path d="M368.7 73.6v81.6c0 7.3-5.7 13.3-12.6 13.3H75.8c-7 0-12.6 5.9-12.6 13.3V226c0 7.3 5.7 13.3 12.6 13.3h450.6c11.3 0 16.9-14.3 8.9-22.6l-145-152.4c-7.9-8.4-21.6-2.5-21.6 9.3zM234.3 470.2v-79.6c0-7.3 5.7-13.3 12.6-13.3h280.3c7 0 12.6-5.9 12.6-13.3v-46.2c0-7.3-5.7-13.3-12.6-13.3H76.7c-11.3 0-16.9 14.3-8.9 22.6l144.9 152.4c7.9 8.5 21.6 2.6 21.6-9.3z" fill="currentColor" p-id="20658"></path></svg>